# xmcd
#
# Track frame offsets:
#	150
#	11627
#	23545
#	37170
#	49972
#	61307
#	74875
#	85247
#	95517
#	108437
#	120205
#	131785
#
# Disc length: 1995
#
# Revision: 1
# Processed by: cddbd v1.5.1PL0 Copyright (c) Steve Scherf et al.
# Submitted via: ExactAudioCopy v0.90b4
# Normalized: r0:DSETVAR1,TDELIM( - )
#
DISCID=a507c90c
DTITLE=Various Artist - Back To The 60's Country
DYEAR=1989
DGENRE=Country
TTITLE0=Don Gibson - Sea Of Heartbreak
TTITLE1=Jack Greene - There Goes My Everything
TTITLE2=Jimmy Dean - Big Bad John
TTITLE3=Jerry Wallace - In The Misty Moonlight
TTITLE4=Wynn Stewart - It's Such A Pretty World Today
TTITLE5=David Houston - Almost Persuaded
TTITLE6=Dave Dudley - Six Days On The Road
TTITLE7=Faron Young - Hello Walls
TTITLE8=Claude King - Wolverton Mountain
TTITLE9=Henson Cargill - Skip A Rope
TTITLE10=Leon Ashley - Laura (What's He Got That I Ain't Got)
TTITLE11=Johnny Bush - You Gave Me A Mountain
EXTD=
EXTT0=
EXTT1=
EXTT2=
EXTT3=
EXTT4=
EXTT5=
EXTT6=
EXTT7=
EXTT8=
EXTT9=
EXTT10=
EXTT11=
PLAYORDER=
